<svg width="24" height="24" viewBox="0 0 24 24" fill="none" xmlns="http://www.w3.org/2000/svg">
<path fill-rule="evenodd" clip-rule="evenodd" d="M8.29289 10.2929C7.90237 10.6834 7.90237 11.3166 8.29289 11.7071L11.2929 14.7071C11.4804 14.8946 11.7348 15 12 15C12.2652 15 12.5196 14.8946 12.7071 14.7071L15.7071 11.7071C16.0976 11.3166 16.0976 10.6834 15.7071 10.2929C15.3166 9.90237 14.6834 9.90237 14.2929 10.2929L13 11.5858V6C13 5.4477 12.5523 5 12 5C11.4477 5 11 5.4477 11 6V11.5858L9.70711 10.2929C9.31658 9.90237 8.68342 9.90237 8.29289 10.2929Z" fill="#666666"/>
<path fill-rule="evenodd" clip-rule="evenodd" d="M7 17C7 16.4477 7.3198 16 7.71429 16H16.2857C16.6802 16 17 16.4477 17 17C17 17.5523 16.6802 18 16.2857 18H7.71429C7.3198 18 7 17.5523 7 17Z" fill="#666666"/>
</svg>
