<svg width="16" height="16" viewBox="0 0 16 16" fill="none" xmlns="http://www.w3.org/2000/svg">
<path d="M8 2C4.69 2 2 4.69 2 8C2 11.31 4.69 14 8 14C11.31 14 14 11.31 14 8C14 4.69 11.31 2 8 2ZM8 13C5.24 13 3 10.76 3 8C3 5.24 5.24 3 8 3C10.76 3 13 5.24 13 8C13 10.76 10.76 13 8 13Z" fill="#666666"/>
<path d="M8 6.85001C7.72 6.85001 7.5 7.07001 7.5 7.35001V10.75C7.5 11.03 7.72 11.25 8 11.25C8.28 11.25 8.5 11.03 8.5 10.75V7.35001C8.5 7.08001 8.28 6.85001 8 6.85001Z" fill="#666666"/>
<path d="M8.01 4.8C7.75 4.78 7.51 5.05 7.5 5.32C7.5 5.33 7.5 5.39 7.5 5.4C7.5 5.67 7.71 5.87 7.99 5.88H8C8.27 5.88 8.49 5.64 8.5 5.38C8.5 5.37 8.5 5.27 8.5 5.27C8.5 4.98 8.29 4.8 8.01 4.8Z" fill="#666666"/>
</svg>
