<svg width="20" height="20" viewBox="0 0 20 20" fill="none" xmlns="http://www.w3.org/2000/svg">
<path d="M18.0917 4.40833L15.5917 1.90833C15.4745 1.7927 15.3257 1.71437 15.164 1.68323C15.0023 1.65208 14.8351 1.66952 14.6833 1.73333C14.5311 1.79585 14.4009 1.90202 14.3089 2.03845C14.217 2.17488 14.1675 2.33548 14.1667 2.5V4.16667H4.16666C3.50362 4.16667 2.86773 4.43006 2.39889 4.8989C1.93005 5.36774 1.66666 6.00363 1.66666 6.66667V9.16667C1.66666 9.38768 1.75445 9.59964 1.91073 9.75592C2.06701 9.9122 2.27898 10 2.49999 10C2.721 10 2.93297 9.9122 3.08925 9.75592C3.24553 9.59964 3.33332 9.38768 3.33332 9.16667V6.66667C3.33332 6.44565 3.42112 6.23369 3.5774 6.07741C3.73368 5.92113 3.94564 5.83333 4.16666 5.83333H14.1667V7.5C14.1675 7.66452 14.217 7.82512 14.3089 7.96155C14.4009 8.09799 14.5311 8.20415 14.6833 8.26667C14.7822 8.31332 14.8907 8.33615 15 8.33333C15.1097 8.33397 15.2184 8.31295 15.3199 8.27148C15.4214 8.23001 15.5138 8.1689 15.5917 8.09167L18.0917 5.59167C18.1698 5.5142 18.2318 5.42203 18.2741 5.32048C18.3164 5.21893 18.3382 5.11001 18.3382 5C18.3382 4.88999 18.3164 4.78107 18.2741 4.67952C18.2318 4.57797 18.1698 4.4858 18.0917 4.40833V4.40833Z" fill="#666666"/>
<path d="M17.5 10C17.279 10 17.067 10.0878 16.9107 10.2441C16.7545 10.4004 16.6667 10.6123 16.6667 10.8333V13.3333C16.6667 13.5543 16.5789 13.7663 16.4226 13.9226C16.2663 14.0789 16.0543 14.1667 15.8333 14.1667H5.83333V12.5C5.83251 12.3355 5.78301 12.1749 5.69107 12.0384C5.59912 11.902 5.46885 11.7958 5.31667 11.7333C5.16491 11.6695 4.99765 11.6521 4.83599 11.6832C4.67433 11.7144 4.52552 11.7927 4.40833 11.9083L1.90833 14.4083C1.83023 14.4858 1.76823 14.578 1.72592 14.6795C1.68362 14.7811 1.66183 14.89 1.66183 15C1.66183 15.11 1.68362 15.2189 1.72592 15.3205C1.76823 15.422 1.83023 15.5142 1.90833 15.5917L4.40833 18.0917C4.4862 18.1689 4.57855 18.23 4.68008 18.2715C4.78161 18.3129 4.89033 18.334 5 18.3333C5.10931 18.3361 5.21777 18.3133 5.31667 18.2667C5.46885 18.2041 5.59912 18.098 5.69107 17.9616C5.78301 17.8251 5.83251 17.6645 5.83333 17.5V15.8333H15.8333C16.4964 15.8333 17.1323 15.5699 17.6011 15.1011C18.0699 14.6323 18.3333 13.9964 18.3333 13.3333V10.8333C18.3333 10.6123 18.2455 10.4004 18.0893 10.2441C17.933 10.0878 17.721 10 17.5 10Z" fill="#666666"/>
</svg>
