<svg width="19" height="14" viewBox="0 0 19 14" fill="none" xmlns="http://www.w3.org/2000/svg">
<path fill-rule="evenodd" clip-rule="evenodd" d="M15.1335 8.37424C15.7778 8.9502 16.8 8.4929 16.8 7.62871V2.4C16.8 1.84771 16.3523 1.4 15.8 1.4H2.4C1.84772 1.4 1.4 1.84772 1.4 2.4V9.11937C1.4 9.95788 2.36993 10.4241 3.0247 9.90024L4.25331 8.91735C4.62846 8.61723 5.16402 8.62631 5.52879 8.93897L6.27647 9.57983C6.65697 9.90597 7.22012 9.9001 7.59374 9.5661L11.3638 6.19581C11.7433 5.85651 12.3172 5.85651 12.6967 6.19581L15.1335 8.37424ZM0.999999 0C0.447714 0 0 0.447715 0 1V13C0 13.5523 0.447715 14 1 14H17.2C17.7523 14 18.2 13.5523 18.2 13V1C18.2 0.447716 17.7523 0 17.2 0H0.999999ZM5.6 5.6C6.3732 5.6 7 4.9732 7 4.2C7 3.4268 6.3732 2.8 5.6 2.8C4.8268 2.8 4.2 3.4268 4.2 4.2C4.2 4.9732 4.8268 5.6 5.6 5.6Z" fill="#929292"/>
</svg>
