<svg width="24" height="24" viewBox="0 0 24 24" fill="none" xmlns="http://www.w3.org/2000/svg">
<path d="M20.25 6H12.2501L9.85013 4.2C9.46027 3.90865 8.98682 3.75083 8.50012 3.75H3.75C3.15346 3.75066 2.58155 3.98792 2.15973 4.40973C1.73792 4.83155 1.50066 5.40346 1.5 6V18C1.50066 18.5965 1.73792 19.1685 2.15973 19.5903C2.58155 20.0121 3.15346 20.2493 3.75 20.25H20.25C20.8465 20.2493 21.4185 20.0121 21.8403 19.5903C22.2621 19.1685 22.4993 18.5965 22.5 18V8.25C22.4993 7.65346 22.2621 7.08155 21.8403 6.65973C21.4185 6.23792 20.8465 6.00066 20.25 6V6ZM21 18C20.9997 18.1988 20.9206 18.3894 20.78 18.53C20.6394 18.6706 20.4488 18.7497 20.25 18.75H3.75C3.55117 18.7497 3.36056 18.6706 3.21997 18.53C3.07937 18.3894 3.00027 18.1988 3 18V6C3.00027 5.80117 3.07937 5.61056 3.21997 5.46997C3.36056 5.32937 3.55117 5.25027 3.75 5.25H8.50012C8.66223 5.25027 8.81993 5.30279 8.94982 5.39977L11.55 7.35C11.6798 7.44733 11.8377 7.49996 12 7.5H20.25C20.4488 7.50027 20.6394 7.57937 20.78 7.71997C20.9206 7.86056 20.9997 8.05117 21 8.25V18Z" fill="#666666"/>
<path d="M16.8684 10.0418L9.19703 14.5748L7.35 12.1125C7.23066 11.9533 7.05298 11.8481 6.85607 11.82C6.65916 11.7919 6.45913 11.8431 6.3 11.9625C6.14087 12.0818 6.03567 12.2595 6.00754 12.4564C5.97941 12.6533 6.03066 12.8533 6.15 13.0125L8.4 16.0125C8.51083 16.1602 8.67225 16.2618 8.85334 16.2979C9.03444 16.334 9.22248 16.302 9.38145 16.208L17.6315 11.333C17.717 11.2833 17.792 11.2172 17.8519 11.1384C17.9118 11.0596 17.9555 10.9697 17.9805 10.874C18.0055 10.7782 18.0113 10.6784 17.9976 10.5804C17.9839 10.4824 17.9509 10.388 17.9005 10.3028C17.8501 10.2176 17.7834 10.1432 17.7042 10.0839C17.6249 10.0246 17.5347 9.98161 17.4387 9.95734C17.3428 9.93307 17.243 9.92804 17.1451 9.94253C17.0471 9.95702 16.9531 9.99074 16.8683 10.0418L16.8684 10.0418Z" fill="#666666"/>
</svg>
