<svg width="32" height="32" viewBox="0 0 32 32" fill="none" xmlns="http://www.w3.org/2000/svg">
<g clip-path="url(#clip0)">
<rect x="5" y="7" width="20" height="24" fill="white"/>
<path d="M27.002 1V2.999H25.002V5H27.002V33H3.00199C3.00199 33 1.00199 33 1.00199 31V4.018C1.00199 4.012 1.00099 4.006 1.00099 4C0.965994 2.645 1.80799 1.686 2.55599 1.354C3.29399 0.992 3.91799 1.004 4.00199 1H27.002ZM3.99799 5C3.99999 5 4.00199 5 4.00199 5H23.002V2.999H4.00199C3.99999 3.005 3.96999 2.997 3.85299 3.018C3.73799 3.037 3.57899 3.078 3.44899 3.143C3.19599 3.314 3.03499 3.353 3.00199 4C3.01699 4.5 3.13599 4.609 3.27399 4.743C3.41799 4.869 3.67499 4.955 3.85299 4.982C3.94799 4.999 3.98599 5 3.99799 5ZM5.00199 31H25.002V7H5.00199V31" fill="#333333"/>
<path d="M14.2 26V24.64L14.208 24.448L19.056 19.6H21.408C22.288 19.6 23 20.312 23 21.2V24.4C23 24.8244 22.8314 25.2313 22.5314 25.5314C22.2313 25.8314 21.8243 26 21.4 26H14.2Z" fill="#FFDE40"/>
<path d="M14.2 23.328V14.272L15.864 12.616C16.0119 12.4675 16.1877 12.3496 16.3813 12.2692C16.5748 12.1888 16.7824 12.1474 16.992 12.1474C17.2016 12.1474 17.4092 12.1888 17.6027 12.2692C17.7963 12.3496 17.9721 12.4675 18.12 12.616L20.384 14.88C20.682 15.1798 20.8493 15.5853 20.8493 16.008C20.8493 16.4307 20.682 16.8362 20.384 17.136L14.2 23.328Z" fill="#EF5BA1"/>
<path fill-rule="evenodd" clip-rule="evenodd" d="M8.6 10C7.712 10 7 10.72 7 11.592V11.6V24.4C7 24.8243 7.16857 25.2313 7.46863 25.5314C7.76869 25.8314 8.17565 26 8.6 26H11.8C12.2243 26 12.6313 25.8314 12.9314 25.5314C13.2314 25.2313 13.4 24.8243 13.4 24.4V11.6C13.4 11.1757 13.2314 10.7687 12.9314 10.4686C12.6313 10.1686 12.2243 10 11.8 10H8.6ZM10.7657 23.3657C10.6157 23.5157 10.4122 23.6 10.2 23.6C9.98783 23.6 9.78434 23.5157 9.63431 23.3657C9.48429 23.2157 9.4 23.0122 9.4 22.8C9.4 22.5878 9.48429 22.3843 9.63431 22.2343C9.78434 22.0843 9.98783 22 10.2 22C10.4122 22 10.6157 22.0843 10.7657 22.2343C10.9157 22.3843 11 22.5878 11 22.8C11 23.0122 10.9157 23.2157 10.7657 23.3657Z" fill="#00BFF3"/>
</g>
<defs>
<clipPath id="clip0">
<rect width="32" height="32" fill="white"/>
</clipPath>
</defs>
</svg>
