<svg width="18" height="17" viewBox="0 0 18 17" fill="none" xmlns="http://www.w3.org/2000/svg">
<path d="M14.5283 2.49272C13.7398 1.69996 12.802 1.07146 11.7691 0.64359C10.7361 0.21572 9.62854 -0.00301977 8.51048 3.1487e-05C6.24612 3.1487e-05 4.11517 0.746791 2.51017 2.10283C0.891473 3.47025 0 5.29256 0 7.23394C0 9.0927 0.826899 10.8588 2.32843 12.2069C3.81067 13.5379 5.80932 14.3355 7.95599 14.4528C8.02879 14.4564 8.09745 14.4878 8.14784 14.5404C8.19823 14.5931 8.22652 14.6631 8.2269 14.736V16.149C8.22699 16.2608 8.24913 16.3716 8.29205 16.475C8.33497 16.5783 8.39783 16.6722 8.47704 16.7512C8.55626 16.8302 8.65027 16.8929 8.7537 16.9356C8.85714 16.9783 8.96797 17.0002 9.07987 17C9.1005 17 9.12115 16.9992 9.14181 16.9977C10.7668 16.8768 12.3229 16.2919 13.6252 15.3126C14.9275 14.3333 15.9214 13.0007 16.4886 11.4732C17.0559 9.94566 17.1727 8.28739 16.8252 6.69542C16.4776 5.10346 15.6804 3.64471 14.5282 2.4925L14.5283 2.49272ZM3.68787 6.79806C3.40734 6.79806 3.1331 6.71487 2.89985 6.55902C2.66659 6.40316 2.48479 6.18163 2.37743 5.92245C2.27007 5.66327 2.24199 5.37807 2.29672 5.10293C2.35145 4.82778 2.48654 4.57505 2.6849 4.37668C2.88327 4.17831 3.13601 4.04322 3.41116 3.98849C3.6863 3.93376 3.9715 3.96185 4.23068 4.0692C4.48986 4.17656 4.71138 4.35836 4.86724 4.59162C5.0231 4.82488 5.10629 5.09911 5.10629 5.37965C5.10629 5.75583 4.95685 6.11661 4.69084 6.38262C4.42484 6.64862 4.06406 6.79806 3.68787 6.79806ZM7.65943 4.5286C7.3789 4.5286 7.10466 4.44541 6.8714 4.28955C6.63815 4.1337 6.45634 3.91217 6.34899 3.65299C6.24163 3.39381 6.21354 3.10861 6.26827 2.83347C6.323 2.55832 6.45809 2.30559 6.65646 2.10722C6.85483 1.90885 7.10757 1.77376 7.38271 1.71903C7.65786 1.6643 7.94305 1.69239 8.20223 1.79974C8.46142 1.9071 8.68294 2.0889 8.8388 2.32216C8.99466 2.55541 9.07784 2.82965 9.07784 3.11019C9.07784 3.48637 8.92841 3.84715 8.6624 4.11316C8.3964 4.37916 8.03562 4.5286 7.65943 4.5286V4.5286ZM10.4963 4.24492C10.4963 3.96438 10.5794 3.69015 10.7353 3.45689C10.8912 3.22363 11.1127 3.04183 11.3719 2.93447C11.631 2.82712 11.9162 2.79903 12.1914 2.85376C12.4665 2.90849 12.7193 3.04358 12.9176 3.24195C13.116 3.44032 13.2511 3.69305 13.3058 3.9682C13.3606 4.24334 13.3325 4.52854 13.2251 4.78772C13.1178 5.0469 12.936 5.26843 12.7027 5.42428C12.4694 5.58014 12.1952 5.66333 11.9147 5.66333C11.5385 5.66333 11.1777 5.51389 10.9117 5.24789C10.6457 4.98188 10.4963 4.6211 10.4963 4.24492ZM13.9004 9.63489C13.6199 9.63489 13.3457 9.5517 13.1124 9.39584C12.8792 9.23998 12.6974 9.01846 12.59 8.75928C12.4827 8.5001 12.4546 8.2149 12.5093 7.93976C12.564 7.66461 12.6991 7.41187 12.8975 7.2135C13.0958 7.01514 13.3486 6.88004 13.6237 6.82531C13.8989 6.77059 14.1841 6.79867 14.4433 6.90603C14.7024 7.01339 14.924 7.19519 15.0798 7.42845C15.2357 7.6617 15.3189 7.93594 15.3189 8.21647C15.3189 8.59266 15.1694 8.95344 14.9034 9.21944C14.6374 9.48545 14.2766 9.63489 13.9004 9.63489V9.63489Z" fill="#999999"/>
</svg>
