<svg width="18" height="16" viewBox="0 0 18 16" fill="none" xmlns="http://www.w3.org/2000/svg">
<path d="M16.875 2.25H13.0704L12.2564 0.621825C12.1629 0.434982 12.0192 0.277852 11.8415 0.168028C11.6637 0.0582048 11.4589 2.391e-05 11.25 0H6.75C6.54107 2.391e-05 6.33627 0.0582048 6.15854 0.168028C5.9808 0.277852 5.83714 0.434982 5.74365 0.621825L4.92956 2.25H1.125C0.97724 2.24992 0.830911 2.27896 0.694382 2.33546C0.557853 2.39197 0.433801 2.47484 0.329318 2.57932C0.224836 2.6838 0.141972 2.80785 0.085465 2.94438C0.0289582 3.08091 -8.36215e-05 3.22724 1.80847e-07 3.375V14.625C-8.36215e-05 14.7728 0.0289582 14.9191 0.085465 15.0556C0.141972 15.1921 0.224836 15.3162 0.329318 15.4207C0.433801 15.5252 0.557853 15.608 0.694382 15.6645C0.830911 15.721 0.97724 15.7501 1.125 15.75H16.875C17.0228 15.7501 17.1691 15.721 17.3056 15.6645C17.4421 15.608 17.5662 15.5252 17.6707 15.4207C17.7752 15.3162 17.858 15.1921 17.9145 15.0556C17.971 14.9191 18.0001 14.7728 18 14.625V3.375C18.0001 3.22724 17.971 3.08091 17.9145 2.94438C17.858 2.80785 17.7752 2.6838 17.6707 2.57932C17.5662 2.47484 17.4421 2.39197 17.3056 2.33546C17.1691 2.27896 17.0228 2.24992 16.875 2.25V2.25ZM15.75 13.5H2.25V4.5H5.625C5.83393 4.49998 6.03873 4.4418 6.21646 4.33197C6.3942 4.22215 6.53786 4.06502 6.63135 3.87817L7.44544 2.25H10.5546L11.3687 3.87817C11.4621 4.06502 11.6058 4.22215 11.7835 4.33197C11.9613 4.4418 12.1661 4.49998 12.375 4.5H15.75V13.5Z" fill="#999999"/>
<path d="M9 6.1875C8.55499 6.1875 8.11998 6.31946 7.74997 6.56669C7.37996 6.81393 7.09157 7.16533 6.92127 7.57646C6.75097 7.9876 6.70642 8.44 6.79323 8.87645C6.88005 9.31291 7.09434 9.71382 7.40901 10.0285C7.72368 10.3432 8.12459 10.5574 8.56105 10.6443C8.9975 10.7311 9.4499 10.6865 9.86104 10.5162C10.2722 10.3459 10.6236 10.0575 10.8708 9.68753C11.118 9.31752 11.25 8.88251 11.25 8.4375C11.2492 7.841 11.0119 7.26916 10.5901 6.84737C10.1683 6.42558 9.5965 6.18828 9 6.1875V6.1875Z" fill="#999999"/>
</svg>
