<svg width="32" height="32" viewBox="0 0 32 32" fill="none" xmlns="http://www.w3.org/2000/svg">
<path d="M8.14642 6.34826L6.34942 8.1393C5.88353 8.60365 5.88353 9.39967 6.34942 9.93035L12.4725 16.0332L6.34942 22.136C5.88353 22.6003 5.88353 23.3964 6.34942 23.927L8.07987 25.6517C8.54576 26.1161 9.34443 26.1161 9.87687 25.6517L16 19.5489L22.1231 25.6517C22.589 26.1161 23.3877 26.1161 23.9201 25.6517L25.6506 23.927C26.1165 23.4627 26.1165 22.6667 25.6506 22.136L19.5275 15.9668L25.6506 9.86401C26.1165 9.39967 26.1165 8.60365 25.6506 8.07297L23.9201 6.34826C23.4542 5.88391 22.6556 5.88391 22.1231 6.34826L16 12.4511L9.87687 6.34826C9.41098 5.88391 8.61231 5.88391 8.14642 6.34826Z" fill="#666666"/>
</svg>
