<svg width="32" height="32" viewBox="0 0 32 32" fill="none" xmlns="http://www.w3.org/2000/svg">
<path d="M22.7843 29.3781C23.0341 29.8707 22.8384 30.4756 22.3311 30.6941C20.3254 31.5583 18.1605 32.0042 15.9694 32C13.7784 31.9958 11.6152 31.5417 9.61273 30.6698C9.10637 30.4493 8.91294 29.8437 9.16461 29.3521L12.6279 22.587C12.8795 22.0954 13.4808 21.9092 14.0056 22.0813C14.6435 22.2905 15.3123 22.3987 15.9878 22.4C16.6632 22.4013 17.3324 22.2957 17.9711 22.0889C18.4966 21.9188 19.0971 22.1073 19.3469 22.5999L22.7843 29.3781Z" fill="#76C2AF"/>
<path d="M7.76003 28.5341C7.45665 28.9956 6.83443 29.1262 6.39278 28.7946C4.64631 27.4832 3.18385 25.8258 2.09897 23.9222C1.0141 22.0186 0.333535 19.9156 0.0953982 17.7446C0.0351789 17.1956 0.464711 16.7269 1.01639 16.7011L8.60809 16.3459C9.15977 16.32 9.62007 16.7494 9.73142 17.2903C9.86677 17.9479 10.1052 18.582 10.4396 19.1689C10.774 19.7557 11.1982 20.2841 11.6949 20.7356C12.1035 21.1071 12.2383 21.722 11.935 22.1835L7.76003 28.5341Z" fill="#77B3D4"/>
<path d="M1.01981 15.2293C0.468258 15.2009 0.0409098 14.7302 0.103681 14.1815C0.351908 12.0116 1.04224 9.91181 2.13595 8.01325C3.22967 6.11469 4.69982 4.46414 6.45237 3.16089C6.89554 2.83133 7.51715 2.96486 7.81839 3.42776L11.9637 9.79769C12.265 10.2606 12.1273 10.8748 11.717 11.2444C11.2181 11.6937 10.7915 12.22 10.4544 12.8053C10.1172 13.3906 9.87589 14.0237 9.73749 14.6805C9.62363 15.221 9.16133 15.6482 8.60977 15.6198L1.01981 15.2293Z" fill="#4F5D73"/>
<path d="M9.14455 2.65823C8.89214 2.167 9.08465 1.56106 9.59069 1.33982C11.5918 0.464944 13.7543 0.00757436 15.9454 9.32639e-05C18.1364 -0.00738783 20.302 0.435204 22.3091 1.2964C22.8166 1.51417 23.0132 2.11879 22.7642 2.61173L19.337 9.39512C19.0879 9.88806 18.4877 10.0774 17.962 9.90814C17.323 9.70235 16.6536 9.59773 15.9781 9.60004C15.3027 9.60234 14.634 9.71153 13.9965 9.92168C13.472 10.0946 12.8704 9.90929 12.618 9.41806L9.14455 2.65823Z" fill="#C75C5C"/>
<path d="M24.1183 3.38681C24.4172 2.9224 25.0382 2.78574 25.483 3.11308C27.2421 4.40751 28.7205 6.05065 29.8237 7.94369C30.927 9.83673 31.6279 11.933 31.887 14.1016C31.9525 14.65 31.5275 15.1229 30.9761 15.154L23.3882 15.5826C22.8368 15.6138 22.3724 15.1889 22.2558 14.6491C22.1141 13.9929 21.8696 13.361 21.5295 12.7775C21.1894 12.1939 20.7602 11.6697 20.2591 11.223C19.8469 10.8554 19.7061 10.2419 20.005 9.77749L24.1183 3.38681Z" fill="#E0995E"/>
<path d="M30.9766 16.837C31.5281 16.8678 31.9533 17.3404 31.8881 17.8889C31.6303 20.0576 30.9307 22.1543 29.8286 24.048C28.7265 25.9417 27.249 27.5857 25.4907 28.8812C25.0461 29.2088 24.4251 29.0725 24.1259 28.6083L20.0088 22.2201C19.7096 21.7559 19.85 21.1423 20.262 20.7745C20.7628 20.3274 21.1917 19.803 21.5314 19.2192C21.8712 18.6354 22.1153 18.0034 22.2566 17.3472C22.3729 16.8072 22.837 16.3821 23.3885 16.4129L30.9766 16.837Z" fill="#F5CF87"/>
</svg>
