<svg width="32" height="32" viewBox="0 0 32 32" fill="none" xmlns="http://www.w3.org/2000/svg">
<path d="M5.33334 7.99999H2.66667V26.6667C2.66667 28.14 3.86001 29.3333 5.33334 29.3333H24V26.6667H5.33334V7.99999ZM26.6667 2.66666H10.6667C9.19334 2.66666 8.00001 3.85999 8.00001 5.33332V21.3333C8.00001 22.8067 9.19334 24 10.6667 24H26.6667C28.14 24 29.3333 22.8067 29.3333 21.3333V5.33332C29.3333 3.85999 28.14 2.66666 26.6667 2.66666ZM25.3333 14.6667H20V20H17.3333V14.6667H12V12H17.3333V6.66666H20V12H25.3333V14.6667Z" fill="#666666"/>
</svg>
