<svg width="24" height="24" viewBox="0 0 24 24" fill="none" xmlns="http://www.w3.org/2000/svg">
<path d="M20.25 6H12.2501L9.85013 4.2C9.46027 3.90865 8.98682 3.75083 8.50012 3.75H3.75C3.15346 3.75066 2.58155 3.98792 2.15973 4.40973C1.73792 4.83155 1.50066 5.40346 1.5 6V18C1.50066 18.5965 1.73792 19.1685 2.15973 19.5903C2.58155 20.0121 3.15346 20.2493 3.75 20.25H20.25C20.8465 20.2493 21.4185 20.0121 21.8403 19.5903C22.2621 19.1685 22.4993 18.5965 22.5 18V8.25C22.4993 7.65346 22.2621 7.08155 21.8403 6.65973C21.4185 6.23792 20.8465 6.00066 20.25 6V6ZM21 18C20.9997 18.1988 20.9206 18.3894 20.78 18.53C20.6394 18.6706 20.4488 18.7497 20.25 18.75H3.75C3.55117 18.7497 3.36056 18.6706 3.21997 18.53C3.07937 18.3894 3.00027 18.1988 3 18V6C3.00027 5.80117 3.07937 5.61056 3.21997 5.46997C3.36056 5.32937 3.55117 5.25027 3.75 5.25H8.50012C8.66223 5.25027 8.81993 5.30279 8.94982 5.39977L11.55 7.35C11.6798 7.44733 11.8377 7.49996 12 7.5H20.25C20.4488 7.50027 20.6394 7.57937 20.78 7.71997C20.9206 7.86056 20.9997 8.05117 21 8.25V18Z" fill="#666666"/>
<path d="M12 10V16M15 13H9" stroke="#666666" stroke-width="2" stroke-linecap="round" stroke-linejoin="round"/>
</svg>
