<svg width="32" height="32" viewBox="0 0 32 32" fill="none" xmlns="http://www.w3.org/2000/svg">
<path d="M27.3933 6.96667L25.5467 4.72667C25.1733 4.28667 24.62 4 24 4H8C7.38 4 6.82667 4.28667 6.46 4.72667L4.61333 6.96667C4.22667 7.43333 4 8.02 4 8.66667V25.3333C4 26.8067 5.19333 28 6.66667 28H25.3333C26.8067 28 28 26.8067 28 25.3333V8.66667C28 8.02 27.7733 7.43333 27.3933 6.96667ZM16 12.6667L23.3333 20H18.6667V22.6667H13.3333V20H8.66667L16 12.6667ZM6.83333 6.66667L7.92 5.33333H23.92L25.1667 6.66667H6.83333Z" fill="#666666"/>
</svg>
