<svg width="24" height="24" viewBox="0 0 24 24" fill="none" xmlns="http://www.w3.org/2000/svg">
<path d="M8.74506 7.00616C8 7.00616 6.97861 7.31491 6.23026 7.77683C5.4819 8.23876 4.88162 8.87929 4.49258 9.63101C4.10354 10.3827 3.94013 11.2178 4.01956 12.0485C4.09899 12.8791 4.41832 13.6744 4.94393 14.3509C5.46954 15.0273 6.182 15.5598 7.00633 15.8923C7.83065 16.2248 9 16.2305 9.6281 16.2403C12 16.2771 9.6281 16.2403 12 16.2771M12 16.2771L10 13.494M12 16.2771L10 18.5963" stroke="#C5C5C5" stroke-linecap="round"/>
<path d="M15.2549 16.5901C16 16.5901 17.0214 16.2814 17.7697 15.8194C18.5181 15.3575 19.1184 14.717 19.5074 13.9653C19.8965 13.2136 20.0599 12.3784 19.9804 11.5478C19.901 10.7172 19.5817 9.92184 19.0561 9.24539C18.5305 8.56894 17.818 8.03645 16.9937 7.70396C16.1693 7.37146 15 7.36576 14.3719 7.35602C12 7.31923 14.3719 7.35601 12 7.31922M12 7.31922L14 10.1023M12 7.31922L14 4.99999" stroke="#C5C5C5" stroke-linecap="round"/>
</svg>
