<svg width="32" height="22" viewBox="0 0 32 22" fill="none" xmlns="http://www.w3.org/2000/svg">
<g clip-path="url(#clip0)">
<path fill-rule="evenodd" clip-rule="evenodd" d="M16 0C20.9333 0 24.9333 3.46667 25.8667 8C29.2 8.26667 32 11.2 32 14.6667C32 18.4 29.0667 21.3333 25.3333 21.3333H8C3.6 21.3333 0 17.7333 0 13.3333C0 9.2 3.06667 5.86667 7.2 5.33333C8.8 2.13333 12.1333 0 16 0ZM9 11.4545H11.0455C11.0455 8.45454 13.5 6 16.5 6C17.5909 6 18.5455 6.34091 19.4318 6.81818L18.4091 7.84091C17.8636 7.56818 17.1818 7.36363 16.5 7.36363C14.25 7.36363 12.4091 9.20454 12.4091 11.4545H14.4545L11.7273 14.1818L9 11.4545ZM16.5 15.5455C18.75 15.5455 20.5909 13.7045 20.5909 11.4545H18.5455L21.2727 8.72727L24 11.4545H21.9545C21.9545 14.4545 19.5 16.9091 16.5 16.9091C15.4091 16.9091 14.4545 16.5682 13.5682 16.0909L14.5909 15.0682C15.1364 15.3409 15.8182 15.5455 16.5 15.5455Z" fill="#666666"/>
</g>
<defs>
<clipPath id="clip0">
<rect width="32" height="21.3333" fill="white"/>
</clipPath>
</defs>
</svg>
