<svg width="26" height="26" viewBox="0 0 26 26" fill="none" xmlns="http://www.w3.org/2000/svg">
<g clip-path="url(#clip0)">
<path d="M22.5 10.5H20.8484C20.536 8.66469 19.6611 6.97178 18.3446 5.65535C17.0282 4.33892 15.3353 3.46401 13.5 3.1516V1.5C13.5 1.10218 13.342 0.720644 13.0607 0.43934C12.7794 0.158035 12.3978 0 12 0C11.6022 0 11.2206 0.158035 10.9393 0.43934C10.658 0.720644 10.5 1.10218 10.5 1.5V3.1516C8.66469 3.46401 6.97178 4.33892 5.65535 5.65535C4.33892 6.97178 3.46401 8.66469 3.1516 10.5H1.5C1.10218 10.5 0.720644 10.658 0.43934 10.9393C0.158035 11.2206 0 11.6022 0 12C0 12.3978 0.158035 12.7794 0.43934 13.0607C0.720644 13.342 1.10218 13.5 1.5 13.5H3.1516C3.46401 15.3353 4.33892 17.0282 5.65535 18.3446C6.97178 19.6611 8.66469 20.536 10.5 20.8484V22.5C10.5 22.8978 10.658 23.2794 10.9393 23.5607C11.2206 23.842 11.6022 24 12 24C12.3978 24 12.7794 23.842 13.0607 23.5607C13.342 23.2794 13.5 22.8978 13.5 22.5V20.8484C15.3353 20.536 17.0282 19.6611 18.3446 18.3446C19.6611 17.0282 20.536 15.3353 20.8484 13.5H22.5C22.8978 13.5 23.2794 13.342 23.5607 13.0607C23.842 12.7794 24 12.3978 24 12C24 11.6022 23.842 11.2206 23.5607 10.9393C23.2794 10.658 22.8978 10.5 22.5 10.5ZM12 18C10.8133 18 9.65327 17.6481 8.66658 16.9888C7.67988 16.3295 6.91085 15.3925 6.45672 14.2961C6.0026 13.1997 5.88378 11.9933 6.11529 10.8295C6.3468 9.66557 6.91824 8.59647 7.75736 7.75736C8.59647 6.91824 9.66557 6.3468 10.8295 6.11529C11.9933 5.88378 13.1997 6.0026 14.2961 6.45672C15.3925 6.91085 16.3295 7.67988 16.9888 8.66658C17.6481 9.65327 18 10.8133 18 12C17.9984 13.5908 17.3658 15.116 16.2409 16.2409C15.116 17.3658 13.5908 17.9984 12 18Z" fill="#999999"/>
<path d="M19.3792 25.5833H25.1208C25.329 25.5833 25.5 25.4158 25.5 25.2092V21.6224C25.5 21.4159 25.3307 21.25 25.1208 21.25H24.7552V20.727C24.7552 20.0245 24.481 19.2441 24.0341 18.7736C23.5889 18.303 22.9508 18 22.2517 18C22.25 18 22.25 18 22.25 18H22.2483C21.5492 18 20.9111 18.303 20.4659 18.7719C20.019 19.2424 19.7448 20.0228 19.7448 20.7253V21.25H19.4232H19.3792C19.1693 21.25 19 21.4176 19 21.6224V25.2092C19 25.4158 19.1693 25.5833 19.3792 25.5833ZM20.6419 20.727C20.6419 20.2648 20.8095 19.6927 21.1176 19.3677V19.3626C21.4155 19.0478 21.8268 18.8633 22.2483 18.8633H22.25H22.2517C22.6732 18.8633 23.0845 19.0478 23.3824 19.3626V19.366L23.3807 19.3677C23.6905 19.6927 23.8564 20.2648 23.8564 20.727V21.25H23.5602H20.9365H20.6419V20.727Z" fill="#999999"/>
<path d="M12.1667 10C11.7381 10 11.3192 10.1271 10.9629 10.3651C10.6066 10.6032 10.3289 10.9416 10.1649 11.3375C10.0009 11.7334 9.95803 12.1691 10.0416 12.5894C10.1252 13.0097 10.3316 13.3957 10.6346 13.6987C10.9376 14.0017 11.3237 14.2081 11.744 14.2917C12.1643 14.3753 12.5999 14.3324 12.9958 14.1684C13.3917 14.0044 13.7301 13.7267 13.9682 13.3704C14.2063 13.0141 14.3333 12.5952 14.3333 12.1667C14.3326 11.5923 14.1041 11.0416 13.6979 10.6354C13.2917 10.2293 12.7411 10.0008 12.1667 10Z" fill="#999999"/>
</g>
<defs>
<clipPath id="clip0">
<rect width="26" height="26" fill="white"/>
</clipPath>
</defs>
</svg>
