<svg width="24" height="24" viewBox="0 0 24 24" fill="none" xmlns="http://www.w3.org/2000/svg">
<path d="M22.5 10.5H20.8484C20.536 8.66469 19.6611 6.97178 18.3446 5.65535C17.0282 4.33892 15.3353 3.46401 13.5 3.1516V1.5C13.5 1.10218 13.342 0.720644 13.0607 0.43934C12.7794 0.158035 12.3978 0 12 0C11.6022 0 11.2206 0.158035 10.9393 0.43934C10.658 0.720644 10.5 1.10218 10.5 1.5V3.1516C8.66469 3.46401 6.97178 4.33892 5.65535 5.65535C4.33892 6.97178 3.46401 8.66469 3.1516 10.5H1.5C1.10218 10.5 0.720644 10.658 0.43934 10.9393C0.158035 11.2206 0 11.6022 0 12C0 12.3978 0.158035 12.7794 0.43934 13.0607C0.720644 13.342 1.10218 13.5 1.5 13.5H3.1516C3.46401 15.3353 4.33892 17.0282 5.65535 18.3446C6.97178 19.6611 8.66469 20.536 10.5 20.8484V22.5C10.5 22.8978 10.658 23.2794 10.9393 23.5607C11.2206 23.842 11.6022 24 12 24C12.3978 24 12.7794 23.842 13.0607 23.5607C13.342 23.2794 13.5 22.8978 13.5 22.5V20.8484C15.3353 20.536 17.0282 19.6611 18.3446 18.3446C19.6611 17.0282 20.536 15.3353 20.8484 13.5H22.5C22.8978 13.5 23.2794 13.342 23.5607 13.0607C23.842 12.7794 24 12.3978 24 12C24 11.6022 23.842 11.2206 23.5607 10.9393C23.2794 10.658 22.8978 10.5 22.5 10.5ZM12 18C10.8133 18 9.65327 17.6481 8.66658 16.9888C7.67988 16.3295 6.91085 15.3925 6.45672 14.2961C6.0026 13.1997 5.88378 11.9933 6.11529 10.8295C6.3468 9.66557 6.91824 8.59647 7.75736 7.75736C8.59647 6.91824 9.66557 6.3468 10.8295 6.11529C11.9933 5.88378 13.1997 6.0026 14.2961 6.45672C15.3925 6.91085 16.3295 7.67988 16.9888 8.66658C17.6481 9.65327 18 10.8133 18 12C17.9984 13.5908 17.3658 15.116 16.2409 16.2409C15.116 17.3658 13.5908 17.9984 12 18Z" fill="#666666"/>
<path d="M12 9C11.4066 9 10.8266 9.17595 10.3333 9.50559C9.83994 9.83524 9.45542 10.3038 9.22836 10.8519C9.00129 11.4001 8.94188 12.0033 9.05764 12.5853C9.17339 13.1672 9.45912 13.7018 9.87867 14.1213C10.2982 14.5409 10.8328 14.8266 11.4147 14.9424C11.9967 15.0581 12.5999 14.9987 13.148 14.7716C13.6962 14.5446 14.1648 14.1601 14.4944 13.6667C14.824 13.1734 15 12.5933 15 12C14.999 11.2047 14.6826 10.4422 14.1202 9.87983C13.5578 9.31744 12.7953 9.00104 12 9Z" fill="#666666"/>
</svg>
